<mxfile host="app.diagrams.net" modified="2024-05-25T13:21:18.560Z" agent="Mozilla/5.0 (Windows NT 10.0; Win64; x64) AppleWebKit/537.36 (KHTML, like Gecko) Chrome/125.0.0.0 Safari/537.36 Edg/125.0.0.0" etag="m15iyDhI9WJ2Sx0dr1s6" version="24.4.8" type="github">
  <diagram name="PÃ¡gina-1" id="mERSi85bYBw8pYq40fwk">
    <mxGraphModel dx="1224" dy="553" grid="1" gridSize="10" guides="1" tooltips="1" connect="1" arrows="1" fold="1" page="1" pageScale="1" pageWidth="827" pageHeight="1169" math="0" shadow="0">
      <root>
        <mxCell id="0" />
        <mxCell id="1" parent="0" />
        <mxCell id="p4ikGsrfCwqN0r4BqlhD-54" value="" style="edgeStyle=orthogonalEdgeStyle;rounded=0;orthogonalLoop=1;jettySize=auto;html=1;" edge="1" parent="1" source="p4ikGsrfCwqN0r4BqlhD-28" target="p4ikGsrfCwqN0r4BqlhD-55">
          <mxGeometry relative="1" as="geometry">
            <mxPoint x="254" y="640" as="targetPoint" />
          </mxGeometry>
        </mxCell>
        <mxCell id="p4ikGsrfCwqN0r4BqlhD-62" value="" style="edgeStyle=orthogonalEdgeStyle;rounded=0;orthogonalLoop=1;jettySize=auto;html=1;" edge="1" parent="1" source="p4ikGsrfCwqN0r4BqlhD-28" target="p4ikGsrfCwqN0r4BqlhD-67">
          <mxGeometry relative="1" as="geometry">
            <mxPoint x="434" y="830" as="targetPoint" />
          </mxGeometry>
        </mxCell>
        <mxCell id="p4ikGsrfCwqN0r4BqlhD-75" value="" style="edgeStyle=orthogonalEdgeStyle;rounded=0;orthogonalLoop=1;jettySize=auto;html=1;" edge="1" parent="1" source="p4ikGsrfCwqN0r4BqlhD-28" target="p4ikGsrfCwqN0r4BqlhD-76">
          <mxGeometry relative="1" as="geometry">
            <mxPoint x="614" y="640" as="targetPoint" />
          </mxGeometry>
        </mxCell>
        <mxCell id="p4ikGsrfCwqN0r4BqlhD-28" value="Iphone" style="swimlane;fontStyle=1;align=center;verticalAlign=top;childLayout=stackLayout;horizontal=1;startSize=26;horizontalStack=0;resizeParent=1;resizeParentMax=0;resizeLast=0;collapsible=1;marginBottom=0;whiteSpace=wrap;html=1;" vertex="1" parent="1">
          <mxGeometry x="334" y="540" width="200" height="200" as="geometry">
            <mxRectangle x="334" y="542" width="80" height="30" as="alternateBounds" />
          </mxGeometry>
        </mxCell>
        <mxCell id="p4ikGsrfCwqN0r4BqlhD-30" value="" style="line;strokeWidth=1;fillColor=none;align=left;verticalAlign=middle;spacingTop=-1;spacingLeft=3;spacingRight=3;rotatable=0;labelPosition=right;points=[];portConstraint=eastwest;strokeColor=inherit;" vertex="1" parent="p4ikGsrfCwqN0r4BqlhD-28">
          <mxGeometry y="26" width="200" height="24" as="geometry" />
        </mxCell>
        <mxCell id="p4ikGsrfCwqN0r4BqlhD-31" value="+ tocar()&lt;div&gt;+ pausar()&lt;/div&gt;&lt;div&gt;+ selecionarMusica(musica: String)&lt;/div&gt;&lt;div&gt;+ ligar(numero: String)&lt;/div&gt;&lt;div&gt;+ atender ()&lt;/div&gt;&lt;div&gt;+ iniciarCorreioVoz()&lt;/div&gt;&lt;div&gt;+ exibirPagina(url: String)&lt;/div&gt;&lt;div&gt;+ adcionarNovaAba()&lt;/div&gt;&lt;div&gt;+ atualizarPagina()&lt;/div&gt;" style="text;strokeColor=none;fillColor=none;align=left;verticalAlign=top;spacingLeft=4;spacingRight=4;overflow=hidden;rotatable=0;points=[[0,0.5],[1,0.5]];portConstraint=eastwest;whiteSpace=wrap;html=1;" vertex="1" parent="p4ikGsrfCwqN0r4BqlhD-28">
          <mxGeometry y="50" width="200" height="150" as="geometry" />
        </mxCell>
        <mxCell id="p4ikGsrfCwqN0r4BqlhD-55" value="ReprodudutorMusical" style="swimlane;fontStyle=0;childLayout=stackLayout;horizontal=1;startSize=26;fillColor=none;horizontalStack=0;resizeParent=1;resizeParentMax=0;resizeLast=0;collapsible=1;marginBottom=0;whiteSpace=wrap;html=1;" vertex="1" parent="1">
          <mxGeometry x="70" y="840" width="210" height="104" as="geometry" />
        </mxCell>
        <mxCell id="p4ikGsrfCwqN0r4BqlhD-56" value="+ tocar()&lt;div&gt;&lt;br&gt;&lt;/div&gt;" style="text;strokeColor=none;fillColor=none;align=left;verticalAlign=top;spacingLeft=4;spacingRight=4;overflow=hidden;rotatable=0;points=[[0,0.5],[1,0.5]];portConstraint=eastwest;whiteSpace=wrap;html=1;" vertex="1" parent="p4ikGsrfCwqN0r4BqlhD-55">
          <mxGeometry y="26" width="210" height="26" as="geometry" />
        </mxCell>
        <mxCell id="p4ikGsrfCwqN0r4BqlhD-57" value="+ pausar()" style="text;strokeColor=none;fillColor=none;align=left;verticalAlign=top;spacingLeft=4;spacingRight=4;overflow=hidden;rotatable=0;points=[[0,0.5],[1,0.5]];portConstraint=eastwest;whiteSpace=wrap;html=1;" vertex="1" parent="p4ikGsrfCwqN0r4BqlhD-55">
          <mxGeometry y="52" width="210" height="26" as="geometry" />
        </mxCell>
        <mxCell id="p4ikGsrfCwqN0r4BqlhD-58" value="+ selecionarMusica(musica : String)" style="text;strokeColor=none;fillColor=none;align=left;verticalAlign=top;spacingLeft=4;spacingRight=4;overflow=hidden;rotatable=0;points=[[0,0.5],[1,0.5]];portConstraint=eastwest;whiteSpace=wrap;html=1;" vertex="1" parent="p4ikGsrfCwqN0r4BqlhD-55">
          <mxGeometry y="78" width="210" height="26" as="geometry" />
        </mxCell>
        <mxCell id="p4ikGsrfCwqN0r4BqlhD-67" value="AparelhoTelefonico" style="swimlane;fontStyle=0;childLayout=stackLayout;horizontal=1;startSize=26;fillColor=none;horizontalStack=0;resizeParent=1;resizeParentMax=0;resizeLast=0;collapsible=1;marginBottom=0;whiteSpace=wrap;html=1;" vertex="1" parent="1">
          <mxGeometry x="364" y="840" width="140" height="104" as="geometry" />
        </mxCell>
        <mxCell id="p4ikGsrfCwqN0r4BqlhD-68" value="+ ligar(numero; String)" style="text;strokeColor=none;fillColor=none;align=left;verticalAlign=top;spacingLeft=4;spacingRight=4;overflow=hidden;rotatable=0;points=[[0,0.5],[1,0.5]];portConstraint=eastwest;whiteSpace=wrap;html=1;" vertex="1" parent="p4ikGsrfCwqN0r4BqlhD-67">
          <mxGeometry y="26" width="140" height="26" as="geometry" />
        </mxCell>
        <mxCell id="p4ikGsrfCwqN0r4BqlhD-69" value="+ atender()" style="text;strokeColor=none;fillColor=none;align=left;verticalAlign=top;spacingLeft=4;spacingRight=4;overflow=hidden;rotatable=0;points=[[0,0.5],[1,0.5]];portConstraint=eastwest;whiteSpace=wrap;html=1;" vertex="1" parent="p4ikGsrfCwqN0r4BqlhD-67">
          <mxGeometry y="52" width="140" height="26" as="geometry" />
        </mxCell>
        <mxCell id="p4ikGsrfCwqN0r4BqlhD-70" value="+ iniciarCorreioVoz()" style="text;strokeColor=none;fillColor=none;align=left;verticalAlign=top;spacingLeft=4;spacingRight=4;overflow=hidden;rotatable=0;points=[[0,0.5],[1,0.5]];portConstraint=eastwest;whiteSpace=wrap;html=1;" vertex="1" parent="p4ikGsrfCwqN0r4BqlhD-67">
          <mxGeometry y="78" width="140" height="26" as="geometry" />
        </mxCell>
        <mxCell id="p4ikGsrfCwqN0r4BqlhD-76" value="NavegadorInternet" style="swimlane;fontStyle=0;childLayout=stackLayout;horizontal=1;startSize=26;fillColor=none;horizontalStack=0;resizeParent=1;resizeParentMax=0;resizeLast=0;collapsible=1;marginBottom=0;whiteSpace=wrap;html=1;" vertex="1" parent="1">
          <mxGeometry x="600" y="840" width="150" height="104" as="geometry" />
        </mxCell>
        <mxCell id="p4ikGsrfCwqN0r4BqlhD-77" value="+ exibirPagina(url: String)" style="text;strokeColor=none;fillColor=none;align=left;verticalAlign=top;spacingLeft=4;spacingRight=4;overflow=hidden;rotatable=0;points=[[0,0.5],[1,0.5]];portConstraint=eastwest;whiteSpace=wrap;html=1;" vertex="1" parent="p4ikGsrfCwqN0r4BqlhD-76">
          <mxGeometry y="26" width="150" height="26" as="geometry" />
        </mxCell>
        <mxCell id="p4ikGsrfCwqN0r4BqlhD-78" value="+ adcionarNovaAba()" style="text;strokeColor=none;fillColor=none;align=left;verticalAlign=top;spacingLeft=4;spacingRight=4;overflow=hidden;rotatable=0;points=[[0,0.5],[1,0.5]];portConstraint=eastwest;whiteSpace=wrap;html=1;" vertex="1" parent="p4ikGsrfCwqN0r4BqlhD-76">
          <mxGeometry y="52" width="150" height="26" as="geometry" />
        </mxCell>
        <mxCell id="p4ikGsrfCwqN0r4BqlhD-79" value="+ atualizarPagina()" style="text;strokeColor=none;fillColor=none;align=left;verticalAlign=top;spacingLeft=4;spacingRight=4;overflow=hidden;rotatable=0;points=[[0,0.5],[1,0.5]];portConstraint=eastwest;whiteSpace=wrap;html=1;" vertex="1" parent="p4ikGsrfCwqN0r4BqlhD-76">
          <mxGeometry y="78" width="150" height="26" as="geometry" />
        </mxCell>
      </root>
    </mxGraphModel>
  </diagram>
</mxfile>
